<svg version="1.1" id="Layer_1" xmlns="http://www.w3.org/2000/svg" xmlns:xlink="http://www.w3.org/1999/xlink" x="0px" y="0px"
	 width="100%" viewBox="0 0 79 79" enable-background="new 0 0 79 79" xml:space="preserve">
<path fill="#000000" opacity="1.000000" stroke="none" 
	d="
M44.000000,80.000000 
	C29.333336,80.000000 15.166670,80.000000 1.000004,80.000000 
	C1.000003,53.666672 1.000003,27.333344 1.000001,1.000011 
	C27.333326,1.000007 53.666653,1.000007 79.999985,1.000004 
	C79.999985,27.333323 79.999985,53.666645 79.999992,79.999985 
	C68.166664,80.000000 56.333332,80.000000 44.000000,80.000000 
M55.974789,50.982998 
	C55.974789,50.982998 55.926083,50.930378 56.190826,50.318123 
	C62.513111,43.464687 67.520844,35.940712 69.153519,25.570215 
	C58.632439,30.729658 52.412304,39.002468 46.021610,47.383198 
	C46.145966,34.980881 46.678551,22.834742 40.221943,10.489220 
	C34.466728,23.012573 34.647583,35.107967 34.825294,47.416344 
	C28.316772,38.675549 21.984415,30.254120 11.016603,25.218016 
	C11.649697,27.356220 11.779697,28.672541 12.387877,29.708000 
	C16.561520,36.813843 20.835297,43.860867 25.026524,50.981998 
	C25.026524,50.981998 24.977264,51.038109 24.108950,51.024132 
	C19.005125,51.105747 13.901301,51.187363 8.797478,51.268978 
	C8.680028,52.059818 8.562578,52.850658 8.445128,53.641499 
	C15.149254,56.523750 21.853378,59.405998 28.625013,62.317272 
	C28.070467,62.798992 27.047827,63.579239 26.158140,64.489441 
	C25.195454,65.474319 24.356836,66.580475 23.464106,67.633743 
	C26.571325,67.915680 29.133240,67.410347 31.562860,66.536987 
	C38.488682,64.047401 38.467491,63.988445 41.456383,70.925301 
	C41.456383,67.961136 41.456383,65.949593 41.456383,63.801838 
	C46.867432,65.546204 51.877998,67.161461 56.888565,68.776718 
	C57.477108,67.938057 58.065655,67.099396 58.654202,66.260727 
	C56.314281,64.873772 53.974361,63.486813 52.242218,62.460110 
	C59.367668,59.345417 65.982033,56.454136 72.596397,53.562855 
	C72.434814,52.720745 72.273232,51.878639 72.111649,51.036530 
	C66.748596,51.036530 61.385540,51.036530 55.974789,50.982998 
z"/>
<path fill="#161616" opacity="1.000000" stroke="none" 
	d="
M25.076832,50.926830 
	C20.835297,43.860867 16.561520,36.813843 12.387877,29.708000 
	C11.779697,28.672541 11.649697,27.356220 11.016603,25.218016 
	C21.984415,30.254120 28.316772,38.675549 34.825294,47.416344 
	C34.647583,35.107967 34.466728,23.012573 40.221943,10.489220 
	C46.678551,22.834742 46.145966,34.980881 46.021610,47.383198 
	C52.412304,39.002468 58.632439,30.729658 69.153519,25.570215 
	C67.520844,35.940712 62.513111,43.464687 56.000031,50.645493 
	C55.809238,50.972862 55.723587,51.194447 55.723587,51.194447 
	C55.723587,51.194447 56.022488,51.036530 56.022488,51.036530 
	C61.385540,51.036530 66.748596,51.036530 72.111649,51.036530 
	C72.273232,51.878639 72.434814,52.720745 72.596397,53.562855 
	C65.982033,56.454136 59.367668,59.345417 52.242218,62.460110 
	C53.974361,63.486813 56.314281,64.873772 58.654202,66.260727 
	C58.065655,67.099396 57.477108,67.938057 56.888565,68.776718 
	C51.877998,67.161461 46.867432,65.546204 41.456383,63.801838 
	C41.456383,65.949593 41.456383,67.961136 41.456383,70.925301 
	C38.467491,63.988445 38.488682,64.047401 31.562860,66.536987 
	C29.133240,67.410347 26.571325,67.915680 23.464106,67.633743 
	C24.356836,66.580475 25.195454,65.474319 26.158140,64.489441 
	C27.047827,63.579239 28.070467,62.798992 28.625013,62.317272 
	C21.853378,59.405998 15.149254,56.523750 8.445128,53.641499 
	C8.562578,52.850658 8.680028,52.059818 8.797478,51.268978 
	C13.901301,51.187363 19.005125,51.105747 24.596098,51.072685 
	C25.083246,51.121239 25.355804,51.109047 25.355804,51.109047 
	C25.355804,51.109047 25.076832,50.926830 25.076832,50.926830 
z"/>
<path fill="#000000" opacity="1.000000" stroke="none" 
	d="
M25.051678,50.954414 
	C25.076832,50.926830 25.355804,51.109047 25.355804,51.109047 
	C25.355804,51.109047 25.083246,51.121239 25.030254,51.079674 
	C24.977264,51.038109 25.026524,50.981998 25.051678,50.954414 
z"/>
<path fill="#000000" opacity="1.000000" stroke="none" 
	d="
M55.998638,51.009766 
	C56.022488,51.036530 55.723587,51.194447 55.723587,51.194447 
	C55.723587,51.194447 55.809238,50.972862 55.867661,50.951622 
	C55.926083,50.930378 55.974789,50.982998 55.998638,51.009766 
z"/>
</svg>